<svg xmlns="http://www.w3.org/2000/svg" viewBox="0 0 64 64">
  <rect width="64" height="64" rx="14" fill="#2b4d2e"/>
  <g fill="#e6c464">
    <path d="M30 40C22 44 18 50 16.5 57.5 24.5 53 30 47.5 32.5 43Z"/>
    <path d="M34 40C42 44 46 50 47.5 57.5 39.5 53 34 47.5 31.5 43Z"/>
    <path d="M32 42C30.3 47 30.3 52.5 32 58 33.7 52.5 33.7 47 32 42Z"/>
    <rect x="29.3" y="8.5" width="5.4" height="4" rx="1.7"/>
    <rect x="26.05" y="12.5" width="5.4" height="4" rx="1.7"/>
    <rect x="32.55" y="12.5" width="5.4" height="4" rx="1.7"/>
    <rect x="22.8" y="16.9" width="5.4" height="4" rx="1.7"/>
    <rect x="29.3" y="16.9" width="5.4" height="4" rx="1.7"/>
    <rect x="35.8" y="16.9" width="5.4" height="4" rx="1.7"/>
    <rect x="26.05" y="21.3" width="5.4" height="4" rx="1.7"/>
    <rect x="32.55" y="21.3" width="5.4" height="4" rx="1.7"/>
    <rect x="22.8" y="25.7" width="5.4" height="4" rx="1.7"/>
    <rect x="29.3" y="25.7" width="5.4" height="4" rx="1.7"/>
    <rect x="35.8" y="25.7" width="5.4" height="4" rx="1.7"/>
    <rect x="26.05" y="30.1" width="5.4" height="4" rx="1.7"/>
    <rect x="32.55" y="30.1" width="5.4" height="4" rx="1.7"/>
    <rect x="22.8" y="34.5" width="5.4" height="4" rx="1.7"/>
    <rect x="29.3" y="34.5" width="5.4" height="4" rx="1.7"/>
    <rect x="35.8" y="34.5" width="5.4" height="4" rx="1.7"/>
    <rect x="26.05" y="38.9" width="5.4" height="4" rx="1.7"/>
    <rect x="32.55" y="38.9" width="5.4" height="4" rx="1.7"/>
  </g>
</svg>
